<?xml version="1.0" standalone="no"?>
<!DOCTYPE svg PUBLIC "-//W3C//DTD SVG 20010904//EN"
 "http://www.w3.org/TR/2001/REC-SVG-20010904/DTD/svg10.dtd">
<svg version="1.0" xmlns="http://www.w3.org/2000/svg"
 width="300.000000pt" height="300.000000pt" viewBox="0 0 300.000000 300.000000"
 preserveAspectRatio="xMidYMid meet">
<metadata>
Created by potrace 1.14, written by Peter Selinger 2001-2017
</metadata>
<g transform="translate(0.000000,300.000000) scale(0.100000,-0.100000)"
fill="#000000" stroke="none">
<path d="M761 2412 c-121 -12 -154 -174 -48 -234 16 -9 119 -13 387 -15 201 0
368 -2 372 -2 4 -1 -11 -20 -33 -43 -22 -24 -47 -55 -57 -70 l-16 -28 -464 0
c-525 0 -515 1 -551 -73 -21 -45 -19 -85 7 -125 33 -51 41 -52 477 -52 223 0
405 -3 404 -7 0 -5 -6 -37 -13 -73 l-12 -65 -196 -2 c-170 -1 -201 -4 -227
-19 -60 -35 -76 -119 -36 -181 30 -46 68 -53 274 -53 l191 0 6 -27 c3 -16 12
-47 19 -70 l14 -43 -117 0 c-64 0 -319 -1 -567 -1 -310 0 -461 -3 -488 -11
-98 -30 -112 -165 -22 -224 24 -15 82 -17 675 -17 l650 0 44 -52 45 -52 -338
0 c-311 0 -340 -1 -369 -18 -59 -36 -78 -113 -42 -173 37 -61 15 -59 793 -57
689 2 715 3 794 23 160 42 301 122 418 239 114 115 181 230 231 398 22 77 26
109 27 225 0 93 -5 156 -17 204 -89 368 -382 638 -751 692 -48 7 -1395 12
-1464 6z"/>
</g>
</svg>
